<svg xmlns="http://www.w3.org/2000/svg" viewBox="0 0 542.891 272.72"><path d="M11.7 99.42v20.1h17.2c3.6 0 6.3-.8 8.1-2.4.777-.69 1.375-1.578 1.817-2.641-1.587.689-3.555 1.041-5.917 1.041H15.7v-16.1h-4zm47 42.3a280.928 280.928 0 0 0-.2-4c-.134-1.8-.384-3.6-.75-5.4-.367-1.8-.95-3.45-1.75-4.95s-1.834-2.8-3.1-3.9c-.913-.792-2.005-1.432-3.264-1.93-1.517 1.309-3.354 2.408-5.536 3.28v.2c1.933.535 3.533 1.35 4.8 2.45 1.266 1.1 2.3 2.4 3.1 3.9.8 1.5 1.383 3.15 1.75 4.95.366 1.8.616 3.6.75 5.4.066 1.134.133 2.467.2 4 .065 1.534.183 3.1.35 4.7.152 1.474.401 2.868.725 4.2H61.5c-.734-1-1.284-2.216-1.65-3.65a31.385 31.385 0 0 1-.8-4.55 77.28 77.28 0 0 1-.35-4.7zm-24.2-54.5c3.2 0 6.083.517 8.65 1.55 2.566 1.035 4.766 2.45 6.6 4.25a18.465 18.465 0 0 1 4.2 6.25c.965 2.367 1.45 4.917 1.45 7.65 0 4.2-.884 7.834-2.65 10.9-.162.282-.344.55-.525.819 1.928-1.331 3.439-2.935 4.525-4.819 1.766-3.066 2.65-6.7 2.65-10.9 0-2.732-.484-5.283-1.45-7.65a18.465 18.465 0 0 0-4.2-6.25c-1.834-1.8-4.034-3.215-6.6-4.25-2.567-1.033-5.45-1.55-8.65-1.55H0v4h34.5zm-22.8 43.5h4v23.9h-4zm70.198 15.5c2.133 2.067 5.2 3.1 9.2 3.1 2.866 0 5.333-.716 7.4-2.15 1.67-1.158 2.809-2.373 3.434-3.641-1.948 1.19-4.224 1.791-6.834 1.791-4 0-7.067-1.033-9.2-3.1-1.454-1.407-2.447-3.417-3.003-6h-4.497c.2 4.6 1.366 7.934 3.5 10zm2.054-28.51c-1.219.704-2.229 1.535-3.004 2.51-.9 1.134-1.534 2.334-1.9 3.6-.367 1.267-.584 2.4-.65 3.4h23.1a23.273 23.273 0 0 0-1.093-4H82.398c.065-1 .283-2.133.65-3.4.21-.725.518-1.427.904-2.11zm19.294 24.91h11.552c-1.11 3.441-2.561 6.318-4.329 8.671 3.689-2.71 6.474-6.921 8.329-12.671h-12.5c-.408 1.397-1.426 2.731-3.052 4z"/><path d="M118.698 120.72c-.934-3.666-2.45-6.933-4.55-9.8-2.1-2.865-4.785-5.15-8.05-6.85-3.267-1.7-7.1-2.55-11.5-2.55-3.934 0-7.517.7-10.75 2.1-3.234 1.4-6.017 3.317-8.35 5.75a24.527 24.527 0 0 0-1.567 1.813 25.89 25.89 0 0 1 5.917-3.563c3.233-1.4 6.816-2.1 10.75-2.1 4.4 0 8.233.85 11.5 2.55 3.266 1.7 5.95 3.984 8.05 6.85 2.1 2.867 3.616 6.135 4.55 9.8.617 2.425.946 4.93 1.038 7.5h3.962c.266-4-.067-7.833-1-11.5zm53.4 11.25a12.83 12.83 0 0 0-3.7-4.1c-1.535-1.1-3.285-1.983-5.25-2.65a60.326 60.326 0 0 0-6.05-1.7c-2-.465-3.967-.9-5.9-1.3-1.935-.4-3.65-.85-5.15-1.35s-2.717-1.15-3.65-1.95c-.935-.8-1.4-1.833-1.4-3.1 0-.149.018-.284.028-.424-.448.111-.876.25-1.278.424a5.257 5.257 0 0 0-1.95 1.45c-.535.634-.8 1.484-.8 2.55 0 1.267.466 2.3 1.4 3.1.933.8 2.15 1.45 3.65 1.95s3.215.95 5.15 1.35c1.933.4 3.9.834 5.9 1.3a60.592 60.592 0 0 1 6.05 1.7c1.965.667 3.715 1.55 5.25 2.65a12.83 12.83 0 0 1 3.7 4.1c.933 1.634 1.4 3.65 1.4 6.05 0 3.4-.684 6.25-2.05 8.55-.233.392-.495.752-.752 1.118a16.425 16.425 0 0 0 4.752-5.118c1.366-2.3 2.05-5.15 2.05-8.55 0-2.4-.467-4.416-1.4-6.05zm-42.2-23.1c2.133-1.233 4.533-2.1 7.2-2.6 2.666-.5 5.4-.75 8.2-.75 2.8 0 5.516.267 8.15.8 2.633.534 4.983 1.434 7.05 2.7 2.066 1.267 3.783 2.95 5.15 5.05.746 1.147 1.312 2.474 1.731 3.95h4.719c-.267-3.2-1.084-5.85-2.45-7.95-1.367-2.1-3.084-3.783-5.15-5.05-2.067-1.266-4.417-2.166-7.05-2.7a40.99 40.99 0 0 0-8.15-.8c-2.8 0-5.535.25-8.2.75-2.667.5-5.067 1.367-7.2 2.6-1.947 1.126-3.528 2.645-4.781 4.518.26-.173.508-.36.781-.518zm6.15 36.9c.633 1.1 1.45 2 2.45 2.7 1 .7 2.15 1.217 3.45 1.55 1.3.334 2.65.5 4.05.5 1 0 2.05-.116 3.15-.35 1.1-.232 2.1-.6 3-1.1.9-.5 1.65-1.166 2.25-2 .319-.443.547-.953.697-1.52-.614.253-1.253.473-1.947.619-1.1.234-2.15.35-3.15.35-1.4 0-2.75-.166-4.05-.5-1.3-.333-2.45-.85-3.45-1.55-1-.7-1.817-1.6-2.45-2.7-.634-1.1-.95-2.416-.95-3.95h-13.5a22.01 22.01 0 0 0 .506 4h8.994c0 1.535.316 2.851.95 3.951zm55.248-38.85v6.6h.2c1.084-1.751 2.351-3.202 3.8-4.354v-6.247h-13.5v4h9.5zm6.734 10.707c-.026.016-.057.026-.083.042a11.67 11.67 0 0 0-3.8 3.75c-.967 1.535-1.65 3.3-2.05 5.3-.4 2-.6 4.067-.6 6.2 0 2.067.215 4.1.65 6.1.433 2 1.133 3.75 2.1 5.25.965 1.5 2.25 2.717 3.85 3.65 1.6.935 3.533 1.4 5.8 1.4 2.333 0 4.283-.466 5.85-1.4a11.396 11.396 0 0 0 3.8-3.65c.072-.112.132-.236.201-.351-1.567.935-3.517 1.4-5.85 1.4-2.267 0-4.2-.466-5.8-1.4-1.6-.933-2.885-2.15-3.85-3.65-.967-1.5-1.667-3.25-2.1-5.25-.435-2-.65-4.033-.65-6.1 0-2.133.2-4.2.6-6.2.381-1.911 1.03-3.603 1.932-5.091zm-5.834 34.593h-.2v20.5h4v-16.486a17.019 17.019 0 0 1-3.8-4.014zm40.801-33.45c-.935-3.366-2.367-6.315-4.3-8.85-1.934-2.533-4.367-4.565-7.3-6.1-2.935-1.533-6.435-2.3-10.5-2.3-3.2 0-6.134.634-8.8 1.9-2.347 1.115-4.33 2.823-5.954 5.124.621-.424 1.271-.8 1.954-1.124 2.666-1.266 5.6-1.9 8.8-1.9 4.065 0 7.565.767 10.5 2.3 2.933 1.534 5.366 3.567 7.3 6.1 1.933 2.535 3.366 5.484 4.3 8.85.933 3.367 1.4 6.884 1.4 10.55 0 3.467-.467 6.8-1.4 10-.914 3.129-2.295 5.904-4.133 8.332 1.451-1.109 2.759-2.372 3.883-3.832 1.9-2.466 3.315-5.3 4.25-8.5.933-3.2 1.4-6.533 1.4-10-.001-3.666-.468-7.183-1.4-10.55zm25.012-1.107l-.014.007c-1.6.967-2.884 2.217-3.85 3.75-.967 1.535-1.65 3.3-2.05 5.3s-.6 4.034-.6 6.1c0 2.067.2 4.084.6 6.05.4 1.967 1.083 3.734 2.05 5.3a10.908 10.908 0 0 0 3.85 3.75c1.6.935 3.6 1.4 6 1.4s4.416-.466 6.05-1.4a10.794 10.794 0 0 0 3.9-3.75c.058-.094.104-.195.16-.29-.021.013-.039.028-.061.04-1.634.935-3.649 1.4-6.05 1.4s-4.4-.466-6-1.4a10.9 10.9 0 0 1-3.85-3.75c-.968-1.565-1.65-3.333-2.05-5.3-.4-1.966-.6-3.983-.6-6.05 0-2.066.2-4.1.6-6.1.381-1.898 1.024-3.578 1.915-5.057z"/><path d="M292.896 117.57c-1.268-3.366-3.067-6.233-5.4-8.6-2.334-2.366-5.15-4.2-8.45-5.5-3.3-1.3-6.984-1.95-11.05-1.95-4.067 0-7.734.65-11 1.95-3.267 1.3-6.067 3.134-8.4 5.5a22.895 22.895 0 0 0-1.769 2.036 24.765 24.765 0 0 1 6.168-3.536c3.266-1.3 6.933-1.95 11-1.95 4.065 0 7.75.65 11.05 1.95 3.3 1.3 6.116 3.134 8.45 5.5 2.333 2.367 4.133 5.234 5.4 8.6 1.266 3.367 1.899 7.117 1.899 11.25 0 4.134-.634 7.867-1.899 11.2-.921 2.422-2.131 4.582-3.614 6.493a22.672 22.672 0 0 0 2.214-1.942c2.333-2.366 4.133-5.216 5.4-8.55 1.266-3.333 1.899-7.065 1.899-11.2.001-4.133-.632-7.883-1.898-11.251zm23.898 2.6c-1.734 2.3-2.6 6.084-2.6 11.35v23.1h4v-27.1c0-4.216.564-7.465 1.676-9.78-1.246.571-2.28 1.373-3.076 2.43zm-3.299-13.25v7.2h.3c1.051-1.75 2.287-3.213 3.7-4.408v-6.792h-13.5v4h9.5zm38.149 7.15c-.566-2.633-1.549-4.866-2.949-6.7-1.4-1.833-3.316-3.266-5.75-4.3-2.435-1.033-5.551-1.55-9.35-1.55-3 0-5.936.685-8.801 2.05-2.43 1.159-4.472 2.91-6.135 5.241a15.349 15.349 0 0 1 2.135-1.241c2.865-1.366 5.801-2.05 8.801-2.05 3.799 0 6.915.517 9.35 1.55 2.434 1.034 4.35 2.467 5.75 4.3 1.4 1.834 2.383 4.067 2.949 6.7.566 2.634.852 5.55.852 8.75v27.8h4v-31.8c0-3.2-.286-6.115-.852-8.75zm19.599 31.7c.633 1.1 1.45 2 2.45 2.7 1 .7 2.15 1.217 3.45 1.55 1.3.334 2.65.5 4.05.5 1 0 2.05-.116 3.15-.35 1.1-.232 2.1-.6 3-1.1a6.833 6.833 0 0 0 2.25-2c.319-.443.547-.953.696-1.52a11.06 11.06 0 0 1-1.946.619 15.15 15.15 0 0 1-3.15.35c-1.399 0-2.75-.166-4.05-.5-1.3-.333-2.45-.85-3.45-1.55-1-.7-1.817-1.6-2.45-2.7-.634-1.1-.949-2.416-.949-3.95h-13.5a22.01 22.01 0 0 0 .506 4h8.994c-.001 1.535.315 2.851.949 3.951zm-6.15-36.9c2.133-1.233 4.532-2.1 7.2-2.6 2.665-.5 5.399-.75 8.199-.75 2.801 0 5.516.267 8.15.8 2.633.534 4.982 1.434 7.05 2.7 2.065 1.267 3.783 2.95 5.15 5.05.746 1.147 1.312 2.474 1.731 3.95h4.719c-.268-3.2-1.085-5.85-2.45-7.95-1.367-2.1-3.085-3.783-5.15-5.05-2.067-1.266-4.417-2.166-7.05-2.7-2.635-.533-5.35-.8-8.15-.8-2.8 0-5.534.25-8.199.75-2.668.5-5.067 1.367-7.2 2.6-1.947 1.126-3.528 2.644-4.78 4.518.26-.173.507-.36.78-.518zm42.2 23.1c-.935-1.633-2.168-3-3.7-4.1-1.534-1.1-3.284-1.983-5.25-2.65a60.4 60.4 0 0 0-6.05-1.7c-2-.465-3.968-.9-5.9-1.3-1.935-.4-3.65-.85-5.15-1.35s-2.717-1.15-3.649-1.95c-.935-.8-1.4-1.833-1.4-3.1 0-.149.018-.284.028-.424-.448.111-.877.25-1.278.424a5.257 5.257 0 0 0-1.95 1.45c-.534.634-.8 1.484-.8 2.55 0 1.267.466 2.3 1.4 3.1.933.8 2.149 1.45 3.649 1.95s3.216.95 5.15 1.35c1.933.4 3.9.834 5.9 1.3a60.743 60.743 0 0 1 6.05 1.7c1.966.667 3.716 1.55 5.25 2.65a12.842 12.842 0 0 1 3.7 4.1c.933 1.634 1.399 3.65 1.399 6.05 0 3.4-.685 6.25-2.05 8.55-.233.392-.495.753-.753 1.119a16.431 16.431 0 0 0 4.753-5.119c1.365-2.3 2.05-5.15 2.05-8.55.001-2.4-.466-4.416-1.399-6.05zm10.099-25.05h10.2v47.7h4v-51.7h-14.2zm0-23.7v4h10.2v7.7h4v-11.7zm31.4 23.7l10.9 35.3h.2l2.518-8.153-9.618-31.147h-14.9l1.369 4zm26-4l-1.235 4h11.335l-16.146 47.7h2.646l17.5-51.7zm33.253 14.79c-1.22.704-2.229 1.535-3.004 2.51-.9 1.134-1.535 2.334-1.9 3.6-.367 1.267-.584 2.4-.65 3.4h23.101a23.183 23.183 0 0 0-1.093-4h-18.008c.066-1 .283-2.133.65-3.4.21-.725.518-1.427.904-2.11zm-2.054 28.51c2.133 2.067 5.2 3.1 9.2 3.1 2.866 0 5.333-.716 7.4-2.15 1.67-1.158 2.809-2.373 3.435-3.641-1.948 1.19-4.224 1.791-6.835 1.791-4 0-7.067-1.033-9.2-3.1-1.453-1.407-2.446-3.417-3.003-6h-4.497c.2 4.6 1.366 7.934 3.5 10z"/><path d="M542.792 120.72c-.935-3.666-2.45-6.933-4.551-9.8-2.1-2.865-4.784-5.15-8.05-6.85-3.267-1.7-7.1-2.55-11.5-2.55-3.935 0-7.517.7-10.75 2.1-3.234 1.4-6.017 3.317-8.35 5.75a24.32 24.32 0 0 0-1.568 1.814 25.9 25.9 0 0 1 5.918-3.564c3.233-1.4 6.815-2.1 10.75-2.1 4.4 0 8.233.85 11.5 2.55 3.266 1.7 5.95 3.984 8.05 6.85 2.101 2.867 3.616 6.135 4.551 9.8.616 2.425.945 4.93 1.038 7.5h3.962c.265-4-.068-7.833-1-11.5zm-15.454 21.9h11.553c-1.11 3.441-2.562 6.318-4.328 8.671 3.688-2.71 6.474-6.921 8.328-12.671h-12.5c-.407 1.397-1.426 2.731-3.053 4zm-402.74 88.1h4v23.9h-4zm0-31.3v20.1h17.2c3.6 0 6.3-.8 8.1-2.4.777-.69 1.375-1.578 1.817-2.641-1.587.689-3.555 1.041-5.917 1.041h-17.2v-16.1h-4zm47 42.3a280.928 280.928 0 0 0-.2-4c-.134-1.8-.384-3.6-.75-5.4-.367-1.8-.95-3.45-1.75-4.95s-1.834-2.8-3.1-3.9c-.913-.792-2.005-1.432-3.264-1.93-1.517 1.309-3.354 2.408-5.536 3.28v.2c1.933.535 3.533 1.35 4.8 2.45 1.266 1.1 2.3 2.4 3.1 3.9.8 1.5 1.383 3.15 1.75 4.95.366 1.8.616 3.6.75 5.4.066 1.134.133 2.467.2 4 .065 1.534.183 3.1.35 4.7.152 1.474.401 2.868.725 4.2h5.725c-.734-1-1.284-2.216-1.65-3.65a31.385 31.385 0 0 1-.8-4.55 75.704 75.704 0 0 1-.35-4.7zm-24.201-54.5c3.2 0 6.083.517 8.65 1.55 2.566 1.035 4.766 2.45 6.6 4.25a18.465 18.465 0 0 1 4.2 6.25c.965 2.367 1.45 4.917 1.45 7.65 0 4.2-.884 7.834-2.65 10.9-.162.282-.344.55-.525.819 1.928-1.331 3.439-2.935 4.525-4.819 1.766-3.066 2.65-6.7 2.65-10.9 0-2.732-.484-5.283-1.45-7.65a18.465 18.465 0 0 0-4.2-6.25c-1.834-1.8-4.034-3.215-6.6-4.25-2.567-1.033-5.45-1.55-8.65-1.55h-38.5v4h34.5zm47.399 59c2.133 2.067 5.2 3.1 9.2 3.1 2.866 0 5.333-.716 7.4-2.15 1.67-1.158 2.809-2.373 3.434-3.641-1.948 1.19-4.224 1.791-6.834 1.791-4 0-7.067-1.033-9.2-3.1-1.454-1.407-2.447-3.417-3.003-6h-4.497c.2 4.6 1.366 7.934 3.5 10zm2.054-28.51c-1.219.704-2.229 1.535-3.004 2.51-.9 1.134-1.534 2.334-1.9 3.6-.367 1.267-.584 2.4-.65 3.4h23.1a23.273 23.273 0 0 0-1.093-4h-18.007c.065-1 .283-2.133.65-3.4.21-.725.518-1.427.904-2.11z"/><path d="M231.596 220.72c-.934-3.666-2.45-6.933-4.55-9.8-2.1-2.865-4.785-5.15-8.05-6.85-3.267-1.7-7.1-2.55-11.5-2.55-3.934 0-7.517.7-10.75 2.1-3.234 1.4-6.017 3.317-8.35 5.75a24.527 24.527 0 0 0-1.567 1.813 25.89 25.89 0 0 1 5.917-3.563c3.233-1.4 6.816-2.1 10.75-2.1 4.4 0 8.233.85 11.5 2.55 3.266 1.7 5.95 3.984 8.05 6.85 2.1 2.867 3.616 6.135 4.55 9.8.617 2.425.946 4.93 1.038 7.5h3.962c.265-4-.067-7.833-1-11.5zm-15.452 21.9h11.552c-1.11 3.441-2.561 6.318-4.329 8.671 3.689-2.71 6.474-6.921 8.329-12.671h-12.5c-.408 1.397-1.426 2.731-3.052 4zm34.351-35.7v6.6h.2c1.084-1.751 2.351-3.202 3.8-4.354v-6.247h-13.5v4h9.5zm6.733 10.707c-.026.016-.057.026-.083.042a11.67 11.67 0 0 0-3.8 3.75c-.967 1.535-1.65 3.3-2.05 5.3-.4 2-.6 4.067-.6 6.2 0 2.067.215 4.1.65 6.1.433 2 1.133 3.75 2.1 5.25.965 1.5 2.25 2.717 3.85 3.65 1.6.935 3.532 1.4 5.8 1.4 2.333 0 4.283-.466 5.85-1.4a11.4 11.4 0 0 0 3.801-3.65c.072-.112.132-.236.201-.352l-.002.001c-1.566.935-3.517 1.4-5.85 1.4-2.268 0-4.2-.466-5.8-1.4-1.601-.933-2.885-2.15-3.851-3.65-.967-1.5-1.667-3.25-2.1-5.25-.435-2-.65-4.033-.65-6.1 0-2.133.2-4.2.6-6.2.384-1.911 1.033-3.603 1.934-5.091zm34.967 1.143c-.934-3.366-2.367-6.315-4.3-8.85-1.935-2.533-4.367-4.565-7.3-6.1-2.935-1.533-6.435-2.3-10.5-2.3-3.2 0-6.135.634-8.8 1.9-2.346 1.115-4.33 2.823-5.954 5.124.621-.424 1.272-.8 1.954-1.124 2.665-1.266 5.6-1.9 8.8-1.9 4.065 0 7.565.767 10.5 2.3 2.933 1.534 5.365 3.567 7.3 6.1 1.933 2.535 3.366 5.484 4.3 8.85.934 3.367 1.4 6.884 1.4 10.55 0 3.467-.467 6.8-1.4 10-.913 3.13-2.295 5.905-4.134 8.333 1.452-1.11 2.76-2.373 3.884-3.833 1.9-2.466 3.316-5.3 4.25-8.5.934-3.2 1.4-6.533 1.4-10 0-3.666-.467-7.183-1.4-10.55zm-40.8 33.45h-.2v20.5h4v-16.485a17.043 17.043 0 0 1-3.8-4.015zm65.812-34.556l-.012.006c-1.601.967-2.885 2.217-3.851 3.75-.968 1.535-1.649 3.3-2.05 5.3s-.6 4.034-.6 6.1c0 2.067.199 4.084.6 6.05.4 1.967 1.082 3.734 2.05 5.3a10.902 10.902 0 0 0 3.851 3.75c1.6.935 3.6 1.4 6 1.4 2.399 0 4.415-.466 6.049-1.4 1.633-.933 2.934-2.183 3.9-3.75.058-.094.104-.195.16-.29-.021.013-.039.028-.061.04-1.634.935-3.649 1.4-6.049 1.4-2.4 0-4.4-.466-6-1.4a10.902 10.902 0 0 1-3.851-3.75c-.968-1.565-1.649-3.333-2.05-5.3-.4-1.966-.6-3.983-.6-6.05 0-2.066.199-4.1.6-6.1.381-1.898 1.023-3.577 1.914-5.056z"/><path d="M352.095 217.57c-1.268-3.366-3.068-6.233-5.4-8.6-2.334-2.366-5.15-4.2-8.451-5.5-3.299-1.3-6.984-1.95-11.049-1.95-4.068 0-7.734.65-11 1.95-3.268 1.3-6.068 3.134-8.4 5.5a22.723 22.723 0 0 0-1.768 2.036 24.797 24.797 0 0 1 6.168-3.536c3.266-1.3 6.932-1.95 11-1.95 4.064 0 7.75.65 11.049 1.95 3.301 1.3 6.117 3.134 8.451 5.5 2.332 2.367 4.133 5.234 5.4 8.6 1.266 3.367 1.898 7.117 1.898 11.25 0 4.134-.633 7.867-1.898 11.2-.921 2.423-2.132 4.582-3.615 6.494a22.71 22.71 0 0 0 2.215-1.943c2.332-2.366 4.133-5.216 5.4-8.55 1.266-3.333 1.898-7.065 1.898-11.2.001-4.133-.632-7.883-1.898-11.251zm20.599-10.65v9.6h.199a17.431 17.431 0 0 1 3.801-5.649v-7.951h-13.5v4h9.5zm3.75 16.65c-1.101 1.5-1.885 3.25-2.351 5.25-.467 2-.7 4.167-.7 6.5v19.3h4v-23.3c0-2.333.233-4.5.7-6.5a14.69 14.69 0 0 1 1.692-4.244c-1.335.798-2.457 1.788-3.341 2.994zm16.949-22.05c-1.8 0-3.534.267-5.199.8a19.069 19.069 0 0 0-4.7 2.25 17.654 17.654 0 0 0-4.633 4.452c.21-.152.416-.309.634-.452a19.069 19.069 0 0 1 4.7-2.25c1.665-.533 3.399-.8 5.199-.8.934 0 1.966.167 3.101.5v8.731c.522.024 1.054.06 1.6.119.933.1 1.733.217 2.4.35v-13.2c-1.136-.332-2.168-.5-3.102-.5zm5.899 1.4h4.601v4h-4.601zm22.801 0v-15.5h-14.2v4h10.2v15.5h10.4v5.5h4v-9.5zm6 41.1c-2.4 0-4-.4-4.801-1.2-.8-.8-1.199-2.4-1.199-4.8v-21.6h-4v25.6c0 2.4.399 4 1.199 4.8.801.8 2.4 1.2 4.801 1.2.8 0 1.565-.033 2.3-.1a19.362 19.362 0 0 0 2.1-.3v7.4c1.466-.067 2.8-.2 4-.4v-11c-.667.134-1.367.234-2.1.3-.734.067-1.5.1-2.3.1zM199.366 0v3h43.8v7.56h3V0zm26.68 13.56h3v43.56h-3zm35.919 15.8c-1.388 1.84-2.079 4.867-2.079 9.08v18.68h3V35.44c0-3.456.474-6.1 1.406-7.959-.936.453-1.718 1.072-2.327 1.879zM259.886 3v21.52h.239c.797-1.327 1.72-2.447 2.761-3.375V0h-11.361v3h8.361zm29.76 21.68c-.454-2.106-1.24-3.893-2.36-5.36-1.12-1.466-2.653-2.613-4.601-3.44-1.947-.826-4.439-1.24-7.479-1.24-2.134 0-4.319.547-6.56 1.64-1.836.896-3.398 2.238-4.697 4.012a12.103 12.103 0 0 1 1.697-1.012c2.24-1.093 4.426-1.64 6.56-1.64 3.04 0 5.532.414 7.479 1.24 1.947.828 3.48 1.974 4.601 3.44 1.12 1.467 1.906 3.253 2.36 5.36.452 2.107.68 4.44.68 7v22.44h3V31.68c0-2.56-.228-4.892-.68-7zm18.479 25.52c1.706 1.654 4.16 2.48 7.359 2.48 2.293 0 4.268-.573 5.92-1.72 1.301-.902 2.2-1.846 2.709-2.831-1.594 1.022-3.465 1.551-5.629 1.551-3.199 0-5.653-.826-7.359-2.48-1.2-1.162-2.009-2.836-2.444-5h-3.355c.158 3.68 1.091 6.348 2.799 8zm1.519-22.738c-.92.548-1.686 1.19-2.279 1.938-.721.908-1.228 1.868-1.52 2.88-.295 1.014-.469 1.92-.521 2.72h18.479a19.004 19.004 0 0 0-.795-3h-14.685c.052-.8.226-1.706.521-2.72a7.985 7.985 0 0 1 .8-1.818zm15.6 19.858h9.201c-.907 2.813-2.1 5.156-3.557 7.06 2.898-2.171 5.091-5.515 6.557-10.06h-10c-.306 1.045-1.044 2.045-2.201 3z"/><path d="M337.365 30c-.748-2.933-1.961-5.546-3.641-7.84-1.68-2.292-3.827-4.12-6.439-5.48-2.613-1.36-5.68-2.04-9.2-2.04-3.147 0-6.014.56-8.601 1.68-2.587 1.12-4.812 2.653-6.68 4.6-.401.418-.772.861-1.134 1.312a20.699 20.699 0 0 1 4.813-2.912c2.587-1.12 5.453-1.68 8.601-1.68 3.521 0 6.587.68 9.2 2.04 2.612 1.36 4.76 3.188 6.439 5.48 1.68 2.294 2.893 4.907 3.641 7.84.51 2.003.777 4.073.84 6.2h2.96c.212-3.2-.053-6.266-.799-9.2z"/></svg>